<svg height="30" viewBox="0 0 30 30" width="30" xmlns="http://www.w3.org/2000/svg">
  <path d="M7.975 2c-2.235.116-4.365 1.203-5.82 2.89C.7 6.57 0 8.786 0 11c0 1.938.697 3.816 1.646 5.46.95 1.644 2.19 3.077 3.5 4.394 2.824 2.833 6.08 5.232 9.622 7.09.145.076.32.076.464 0 3.543-1.858 6.798-4.257 9.622-7.09 1.31-1.317 2.55-2.75 3.5-4.393C29.304 14.817 30 12.94 30 11c0-2.22-.7-4.428-2.154-6.11C26.39 3.202 24.26 2.115 22.026 2c-1.516-.078-3.045.286-4.362 1.04-1.097.626-1.975 1.558-2.664 2.614-.69-1.056-1.567-1.988-2.664-2.615C11.02 2.285 9.49 1.92 7.976 2z" fill="#FF0000"/>
</svg>
